<?xml version="1.0" encoding="UTF-8" standalone="no"?>
<!DOCTYPE svg PUBLIC "-//W3C//DTD SVG 1.1//EN" "http://www.w3.org/Graphics/SVG/1.1/DTD/svg11.dtd">
<svg width="100%" height="100%" viewBox="0 0 2185 1243" version="1.1" xmlns="http://www.w3.org/2000/svg" xmlns:xlink="http://www.w3.org/1999/xlink" xml:space="preserve" xmlns:serif="http://www.serif.com/" style="fill-rule:evenodd;clip-rule:evenodd;stroke-linejoin:round;stroke-miterlimit:2;">
    <g transform="matrix(3.125,0,0,3.125,0,0)">
        <g transform="matrix(4.16667,0,0,4.16667,-1324.44,-906.457)">
            <path d="M478.004,275.839C476.591,277.217 475.113,278.478 473.564,279.624C472.016,280.774 470.489,281.825 468.98,282.779C464.213,285.321 459.632,288.282 454.696,290.406C453.104,291.09 451.483,291.801 449.837,292.523C448.194,293.249 446.557,293.93 444.928,294.558C443.3,295.19 441.666,295.866 440.02,296.594C436.696,297.738 433.403,298.864 430.13,299.97C426.861,301.075 423.531,302.145 420.142,303.177C418.465,303.595 416.823,304.071 415.215,304.606C410.346,306.221 405.071,307.639 400.069,308.666C398.6,308.932 397.219,308.597 395.93,307.654C394.646,306.715 393.89,305.421 393.664,303.776C393.44,302.126 393.715,300.567 394.476,299.092C395.689,296.762 398.377,296.223 400.601,295.911C404.616,295.343 408.819,293.981 412.791,293.053C414.412,292.673 416.065,292.27 417.742,291.852C421.027,290.897 424.289,289.965 427.521,289.046C430.757,288.134 433.984,287.143 437.201,286.075C440.42,285.004 443.621,283.91 446.808,282.781C452.988,280.59 459.286,277.885 465.062,274.558C469.481,271.992 476.123,268.143 478.136,262.393C483.577,241.288 415.755,242.767 420.017,241.458C436.948,240.183 460.422,237.305 476.752,246.357C477.228,246.663 477.66,246.96 478.049,247.25C478.438,247.536 478.872,247.836 479.349,248.142C489.915,255.767 485.68,268.481 478.004,275.839ZM325.533,257.402C326.945,256.023 328.424,254.764 329.972,253.616C331.521,252.468 333.049,251.416 334.56,250.462C339.327,247.92 343.906,244.959 348.843,242.835C350.434,242.151 352.055,241.44 353.701,240.718C355.344,239.993 356.982,239.312 358.609,238.684C360.237,238.05 361.873,237.375 363.519,236.649C366.841,235.502 370.134,234.376 373.407,233.272C376.676,232.165 380.007,231.095 383.396,230.064C385.073,229.648 386.715,229.17 388.324,228.635C393.194,227.02 398.465,225.603 403.471,224.576C404.939,224.309 406.319,224.646 407.608,225.586C408.892,226.526 409.648,227.82 409.874,229.465C410.098,231.116 409.823,232.676 409.061,234.148C407.848,236.479 405.162,237.019 402.936,237.331C398.921,237.897 394.719,239.261 390.748,240.189C389.126,240.569 387.473,240.97 385.796,241.389C382.51,242.341 379.249,243.277 376.018,244.195C372.783,245.107 369.555,246.1 366.337,247.166C363.119,248.239 359.916,249.332 356.728,250.46C350.548,252.651 344.25,255.354 338.475,258.683C334.058,261.25 327.413,265.097 325.402,270.849C319.961,291.955 387.783,290.473 383.52,291.783C366.589,293.059 343.115,295.935 326.786,286.883C326.31,286.578 325.877,286.281 325.49,285.991C325.099,285.704 324.665,285.405 324.189,285.1C313.623,277.474 317.857,264.759 325.533,257.402ZM406.292,264.291L415.934,262.405C416.564,264.454 418.384,265.819 420.398,265.584C422.761,265.31 424.496,262.94 424.274,260.292C424.052,257.643 421.957,255.719 419.595,255.993C417.426,256.245 415.801,258.247 415.705,260.612L405.973,262.517C405.72,261.787 405.331,261.139 404.843,260.61L417.538,236.015C418.68,236.469 419.929,236.653 421.219,236.503C425.873,235.962 429.293,231.291 428.857,226.072C428.419,220.853 424.291,217.06 419.635,217.601C414.98,218.142 411.56,222.812 411.997,228.032C412.221,230.691 413.404,232.983 415.128,234.518L402.391,259.195C402.153,259.147 401.913,259.117 401.666,259.11L400.446,250.807C402.413,249.941 403.722,247.69 403.515,245.223C403.266,242.256 400.918,240.099 398.272,240.407C395.625,240.714 393.68,243.371 393.929,246.338C394.168,249.197 396.344,251.292 398.862,251.179L400.063,259.363C399.317,259.627 398.654,260.088 398.115,260.686L390.289,254.471C390.624,253.689 390.781,252.8 390.705,251.877C390.479,249.189 388.352,247.235 385.954,247.513C383.557,247.792 381.796,250.198 382.02,252.887C382.245,255.575 384.373,257.528 386.77,257.251C387.81,257.129 388.724,256.612 389.414,255.845L397.219,262.044C396.827,262.882 396.626,263.838 396.673,264.839L396.672,264.836L389.142,266.309C388.654,264.641 387.185,263.523 385.558,263.713C383.67,263.933 382.283,265.826 382.461,267.943C382.638,270.06 384.313,271.598 386.2,271.378C387.97,271.172 389.301,269.481 389.312,267.523L396.851,266.046C397.062,266.871 397.44,267.605 397.939,268.208L385.244,294.096C384.183,293.731 383.037,293.594 381.859,293.731C377.141,294.279 373.674,299.014 374.116,304.305C374.559,309.595 378.745,313.441 383.465,312.892C388.182,312.343 391.649,307.608 391.205,302.318C390.966,299.46 389.634,297.022 387.714,295.472L400.319,269.768C400.832,269.906 401.375,269.95 401.931,269.885C402.121,269.863 402.308,269.829 402.491,269.783L405.936,278.668C404.256,279.943 403.184,281.638 403.432,284.594C403.679,287.548 406.492,290.634 409.612,290.271C412.733,289.908 415.026,286.778 414.732,283.279C414.434,279.708 410.134,277.109 407.783,277.749L404.328,268.837C405.57,267.799 406.344,266.12 406.292,264.291ZM401.158,260.672C403.049,260.452 404.727,261.994 404.905,264.113C405.082,266.233 403.693,268.131 401.802,268.351C399.912,268.57 398.234,267.029 398.056,264.909C397.878,262.79 399.268,260.891 401.158,260.672ZM382.088,296.467C385.458,296.075 388.449,298.822 388.766,302.602C389.082,306.381 386.606,309.764 383.235,310.156C379.864,310.548 376.874,307.801 376.557,304.02C376.241,300.241 378.717,296.859 382.088,296.467ZM408.703,279.41C410.931,279.151 412.909,280.967 413.119,283.466C413.328,285.966 411.69,288.202 409.462,288.462C407.232,288.721 405.254,286.904 405.045,284.405C404.835,281.905 406.474,279.669 408.703,279.41ZM398.4,241.941C400.291,241.721 401.969,243.262 402.146,245.382C402.324,247.502 400.934,249.4 399.044,249.62C397.153,249.84 395.474,248.299 395.298,246.179C395.12,244.059 396.51,242.16 398.4,241.941ZM386.07,248.904C387.783,248.704 389.303,250.101 389.464,252.02C389.626,253.941 388.366,255.66 386.654,255.859C384.941,256.059 383.421,254.662 383.261,252.742C383.099,250.822 384.359,249.103 386.07,248.904ZM385.65,264.808C386.998,264.651 388.194,265.75 388.321,267.262C388.448,268.774 387.456,270.127 386.108,270.283C384.76,270.441 383.563,269.341 383.437,267.83C383.31,266.318 384.301,264.964 385.65,264.808ZM419.71,257.363C421.397,257.167 422.894,258.543 423.052,260.434C423.211,262.325 421.97,264.019 420.284,264.215C418.597,264.411 417.1,263.036 416.942,261.144C416.783,259.253 418.023,257.559 419.71,257.363ZM419.861,220.302C423.186,219.915 426.136,222.626 426.448,226.352C426.76,230.079 424.317,233.416 420.992,233.802C417.668,234.189 414.719,231.479 414.406,227.751C414.094,224.025 416.537,220.688 419.861,220.302Z" style="fill:url(#_Linear1);"/>
        </g>
    </g>
    <defs>
        <linearGradient id="_Linear1" x1="0" y1="0" x2="1" y2="0" gradientUnits="userSpaceOnUse" gradientTransform="matrix(64.8035,225.848,225.848,-64.8035,410.423,163.175)"><stop offset="0" style="stop-color:rgb(72,94,136);stop-opacity:1"/><stop offset="0.5" style="stop-color:rgb(0,143,208);stop-opacity:1"/><stop offset="1" style="stop-color:rgb(72,94,136);stop-opacity:1"/></linearGradient>
    </defs>
</svg>
